<mxfile host="65bd71144e">
    <diagram id="Nworx1UFYZIyCgEZ_f7q" name="Page-1">
        <mxGraphModel dx="603" dy="1139" grid="1" gridSize="10" guides="1" tooltips="1" connect="1" arrows="1" fold="1" page="1" pageScale="1" pageWidth="850" pageHeight="1100" math="0" shadow="0">
            <root>
                <mxCell id="0"/>
                <mxCell id="1" parent="0"/>
                <mxCell id="19" value="Server" style="html=1;" vertex="1" parent="1">
                    <mxGeometry x="40" y="40" width="110" height="40" as="geometry"/>
                </mxCell>
            </root>
        </mxGraphModel>
    </diagram>
</mxfile>